<svg width="24" height="25" viewBox="0 0 24 25" fill="none" xmlns="http://www.w3.org/2000/svg">
<path d="M14.5562 16.0477L14.1007 16.5272C14.1007 16.5272 13.0181 17.667 10.0631 14.5559C7.10812 11.4448 8.1907 10.3051 8.1907 10.3051L8.47752 10.0031C9.18407 9.25924 9.25068 8.06497 8.63424 7.1931L7.37326 5.40961C6.61028 4.3305 5.13596 4.18795 4.26145 5.10864L2.69185 6.76114C2.25823 7.21766 1.96765 7.80945 2.00289 8.46594C2.09304 10.1455 2.81071 13.759 6.81536 17.9752C11.0621 22.4462 15.0468 22.6239 16.6763 22.4631C17.1917 22.4122 17.6399 22.1343 18.0011 21.754L19.4217 20.2584C20.3806 19.2489 20.1102 17.5182 18.8833 16.812L16.9728 15.7123C16.1672 15.2486 15.1858 15.3848 14.5562 16.0477Z" fill="#014EE6"/>
<path d="M17 12.5C19.7614 12.5 22 10.2614 22 7.5C22 4.73858 19.7614 2.5 17 2.5C14.2386 2.5 12 4.73858 12 7.5C12 8.29984 12.1878 9.05582 12.5217 9.72624C12.6105 9.9044 12.64 10.108 12.5886 10.3003L12.2908 11.4133C12.1615 11.8965 12.6035 12.3385 13.0867 12.2092L14.1997 11.9114C14.392 11.86 14.5956 11.8895 14.7738 11.9783C15.4442 12.3122 16.2002 12.5 17 12.5Z" fill="#014EE6"/>
</svg>
