<svg width="16" height="19" viewBox="0 0 16 19" fill="none" xmlns="http://www.w3.org/2000/svg">
<path d="M0 11.5C0 9.75 0.416667 8.19167 1.25 6.825C2.08333 5.45833 3 4.30833 4 3.375C5 2.44167 5.91667 1.72917 6.75 1.2375L8 0.5V3.8C8 4.41667 8.20833 4.90417 8.625 5.2625C9.04167 5.62083 9.50833 5.8 10.025 5.8C10.3083 5.8 10.5792 5.74167 10.8375 5.625C11.0958 5.50833 11.3333 5.31667 11.55 5.05L12 4.5C13.2 5.2 14.1667 6.17083 14.9 7.4125C15.6333 8.65417 16 10.0167 16 11.5C16 12.9667 15.6417 14.3042 14.925 15.5125C14.2083 16.7208 13.2667 17.675 12.1 18.375C12.3833 17.975 12.6042 17.5375 12.7625 17.0625C12.9208 16.5875 13 16.0833 13 15.55C13 14.8833 12.875 14.2542 12.625 13.6625C12.375 13.0708 12.0167 12.5417 11.55 12.075L8 8.6L4.475 12.075C3.99167 12.5583 3.625 13.0917 3.375 13.675C3.125 14.2583 3 14.8833 3 15.55C3 16.0833 3.07917 16.5875 3.2375 17.0625C3.39583 17.5375 3.61667 17.975 3.9 18.375C2.73333 17.675 1.79167 16.7208 1.075 15.5125C0.358333 14.3042 0 12.9667 0 11.5ZM8 11.4L10.125 13.475C10.4083 13.7583 10.625 14.075 10.775 14.425C10.925 14.775 11 15.15 11 15.55C11 16.3667 10.7083 17.0625 10.125 17.6375C9.54167 18.2125 8.83333 18.5 8 18.5C7.16667 18.5 6.45833 18.2125 5.875 17.6375C5.29167 17.0625 5 16.3667 5 15.55C5 15.1667 5.075 14.7958 5.225 14.4375C5.375 14.0792 5.59167 13.7583 5.875 13.475L8 11.4Z" fill="#FC8026"/>
</svg>
