<svg width="44" height="34" viewBox="0 0 44 34" fill="none" xmlns="http://www.w3.org/2000/svg">
<rect x="0.5" y="0.5" width="43" height="33" rx="9.5" stroke="url(#paint0_linear_1_303)"/>
<path d="M29.3517 12.6167L25.3929 9.05375C24.2651 8.03868 23.7012 7.53114 23.0092 7.26562L23 10.0001C23 12.3571 23 13.5356 23.7322 14.2679C24.4645 15.0001 25.643 15.0001 28 15.0001H31.5801C31.2175 14.2959 30.5684 13.7116 29.3517 12.6167Z" fill="#014EE6"/>
<path fill-rule="evenodd" clip-rule="evenodd" d="M20 27H24C27.7712 27 29.6569 27 30.8284 25.8284C32 24.6569 32 22.7712 32 19V18.5629C32 17.6901 32 17.0344 31.9574 16.5001H28L27.9051 16.5001C26.808 16.5002 25.8385 16.5003 25.0569 16.3952C24.2098 16.2813 23.3628 16.0198 22.6716 15.3285C21.9803 14.6373 21.7188 13.7903 21.6049 12.9432C21.4998 12.1616 21.4999 11.1921 21.5 10.095L21.5092 7.26057C21.5095 7.17813 21.5166 7.09659 21.53 7.01666C21.1214 7 20.6358 7 20.0298 7C16.2387 7 14.3431 7 13.1716 8.17157C12 9.34315 12 11.2288 12 15V19C12 22.7712 12 24.6569 13.1716 25.8284C14.3431 27 16.2288 27 20 27ZM19.013 17.9528C18.7245 17.6824 18.2755 17.6824 17.987 17.9528L15.987 19.8278C15.6849 20.1111 15.6695 20.5858 15.9528 20.888C16.2361 21.1901 16.7108 21.2055 17.013 20.9222L17.75 20.2312L17.75 23.5C17.75 23.9142 18.0858 24.25 18.5 24.25C18.9142 24.25 19.25 23.9142 19.25 23.5L19.25 20.2312L19.987 20.9222C20.2892 21.2055 20.7639 21.1901 21.0472 20.888C21.3305 20.5858 21.3151 20.1111 21.013 19.8278L19.013 17.9528Z" fill="#014EE6"/>
<defs>
<linearGradient id="paint0_linear_1_303" x1="40.9062" y1="34" x2="-2.82593" y2="17.2312" gradientUnits="userSpaceOnUse">
<stop stop-color="#FC8026"/>
<stop offset="1" stop-color="#014EE6"/>
</linearGradient>
</defs>
</svg>
