<svg width="93" height="103" viewBox="0 0 93 103" fill="none" xmlns="http://www.w3.org/2000/svg">
<path d="M0.833252 62.9165C0.833252 52.927 3.21172 44.0315 7.96867 36.2301C12.7256 28.4287 17.9583 21.8641 23.6666 16.5363C29.3749 11.2086 34.6076 7.14137 39.3645 4.33477L46.4999 0.124878V18.9624C46.4999 22.4825 47.6892 25.2653 50.0676 27.3108C52.4461 29.3563 55.11 30.379 58.0593 30.379C59.6767 30.379 61.2227 30.0461 62.6973 29.3801C64.172 28.7141 65.5277 27.62 66.7645 26.0978L69.3333 22.9582C76.1833 26.954 81.7013 32.4959 85.8874 39.5837C90.0735 46.6716 92.1666 54.4492 92.1666 62.9165C92.1666 71.2888 90.1211 78.9237 86.0301 85.8212C81.9392 92.7188 76.5638 98.1655 69.9041 102.161C71.5214 99.878 72.782 97.3806 73.6859 94.6691C74.5897 91.9577 75.0416 89.0797 75.0416 86.0353C75.0416 82.2297 74.328 78.6382 72.901 75.2608C71.4739 71.8834 69.4284 68.8627 66.7645 66.1988L46.4999 46.3624L26.378 66.1988C23.619 68.9579 21.526 72.0023 20.0989 75.3322C18.6718 78.662 17.9583 82.2297 17.9583 86.0353C17.9583 89.0797 18.4102 91.9577 19.314 94.6691C20.2178 97.3806 21.4784 99.878 23.0958 102.161C16.436 98.1655 11.0607 92.7188 6.96971 85.8212C2.87874 78.9237 0.833252 71.2888 0.833252 62.9165ZM46.4999 62.3457L58.6301 74.1905C60.2475 75.8079 61.4843 77.6155 62.3405 79.6134C63.1968 81.6113 63.6249 83.752 63.6249 86.0353C63.6249 90.6971 61.96 94.6691 58.6301 97.9514C55.3003 101.234 51.2569 102.875 46.4999 102.875C41.743 102.875 37.6996 101.234 34.3697 97.9514C31.0398 94.6691 29.3749 90.6971 29.3749 86.0353C29.3749 83.8471 29.803 81.7303 30.6593 79.6848C31.5155 77.6393 32.7523 75.8079 34.3697 74.1905L46.4999 62.3457Z" fill="#FC8026" fill-opacity="0.1"/>
</svg>
