<svg width="35" height="34" viewBox="0 0 35 34" fill="none" xmlns="http://www.w3.org/2000/svg">
<ellipse cx="17.5001" cy="16.6702" rx="16.5723" ry="16.5723" fill="#014EE6"/>
<path d="M20.3448 18.872L21.0254 17.5865V24.5814H20.3448V18.872ZM21.706 16.2631L22.3866 14.9776V24.5814H21.706V16.2631ZM23.0672 13.6921L23.7477 12.3971V24.5814H23.0672V13.6921ZM18.5016 18.5506L18.114 17.8417L22.8025 8.92798H23.5681L18.5016 18.5506ZM17.717 17.0666L17.32 16.3482L21.2523 8.92798H22.0274L17.717 17.0666ZM13.1609 17.6621L13.8415 18.9477V24.5814H13.1609V17.6621ZM11.7997 15.0721L12.4803 16.3577V24.5814H11.7997V15.0721ZM10.4386 12.4821L11.1191 13.7771V24.5814H10.4386V12.4821ZM15.9399 20.4979H15.1743L9.75798 10.223V24.5814H9.07739V8.92798H9.84305L15.9399 20.4979ZM17.4807 20.4979H16.7056L10.6182 8.92798H11.3933L17.4807 20.4979ZM24.4283 10.223L19.012 20.4979H18.2369L12.1589 8.92798H12.9246L18.6339 19.7795L24.3338 8.92798H25.1089V24.5814H24.4283V10.223Z" fill="white"/>
</svg>
