<svg width="40" height="40" viewBox="0 0 40 40" fill="none" xmlns="http://www.w3.org/2000/svg">
<path fill-rule="evenodd" clip-rule="evenodd" d="M36.6666 20C36.6666 29.2048 29.2047 36.6667 19.9999 36.6667C10.7952 36.6667 3.33325 29.2048 3.33325 20C3.33325 10.7953 10.7952 3.33334 19.9999 3.33334C29.2047 3.33334 36.6666 10.7953 36.6666 20ZM24.9999 15C24.9999 17.7614 22.7613 20 19.9999 20C17.2385 20 14.9999 17.7614 14.9999 15C14.9999 12.2386 17.2385 10 19.9999 10C22.7613 10 24.9999 12.2386 24.9999 15ZM19.9999 34.1667C22.9733 34.1667 25.7328 33.2506 28.0115 31.6853C29.0179 30.994 29.448 29.6771 28.8629 28.6054C27.6498 26.3838 25.1503 25 19.9998 25C14.8494 25 12.3499 26.3837 11.1368 28.6053C10.5517 29.6769 10.9818 30.9939 11.9882 31.6852C14.2669 33.2506 17.0264 34.1667 19.9999 34.1667Z" fill="#1C274C"/>
<circle cx="20" cy="20" r="19" stroke="#747474" stroke-width="2"/>
</svg>
